<svg width="867" height="326" viewBox="0 0 867 326" fill="none" xmlns="http://www.w3.org/2000/svg">
<g clip-path="url(#clip0_2037_9291)">
<path d="M235.07 78.2138L268.854 63.9961L283.344 93.7015L247.843 108.192L235.07 78.2138Z" fill="#FFB6B6"/>
<path opacity="0.1" d="M235.07 78.2138L268.854 63.9961L283.344 93.7015L247.843 108.192L235.07 78.2138Z" fill="black"/>
<path d="M239.869 66.8942L273.197 105.294C273.197 105.294 250.012 178.471 226.828 184.991C203.643 191.512 160.896 223.391 160.896 223.391L107.281 188.614L133.364 150.214C133.364 150.214 196.398 63.9961 213.062 63.9961C229.726 63.9961 239.869 66.8942 239.869 66.8942Z" fill="#31294A"/>
<path d="M194.844 317.215H117.262L112.357 310.658L92.3314 283.887L87.7234 277.729C87.7234 277.729 70.3348 245.85 73.9575 216.869C77.5801 187.888 115.255 181.367 115.255 181.367H116.806L162.929 221.897L160.176 259.616L174.782 283.887L194.844 317.215Z" fill="#2F2E41"/>
<path d="M133.153 317.218H112.359V286.426L133.153 317.218Z" fill="#2F2E41"/>
<path d="M704.745 101.84L712.5 150.216L663.5 150.848V108.789L704.745 101.84Z" fill="#A0616A"/>
<path d="M821.464 270.47L818.877 283.888L812.458 317.217H683.5C684.507 309.747 685.884 298.995 687.354 287.388C687.499 286.229 687.652 285.062 687.796 283.888C691.484 254.712 695.52 221.695 695.52 221.695L712.474 223.753L745.367 227.738L758.771 229.361L794.664 233.715C812.559 235.882 824.869 252.763 821.464 270.47Z" fill="#F2F2F2"/>
<path d="M764.141 317.215H694.195C695.26 315.962 695.862 315.237 695.862 315.237L716.829 311.774L760.033 304.645C760.033 304.645 762.003 309.738 764.141 317.215Z" fill="#2F2E41"/>
<path d="M667.917 317.215H562.289C563.34 315.129 564.426 313.035 565.542 310.948C567.035 308.159 568.629 305.674 570.317 303.464C571.44 301.993 572.599 300.646 573.794 299.414C577.308 295.799 581.134 293.169 585.162 291.365C599.544 284.895 616.491 288.858 630.923 295.306C636.343 297.726 641.407 300.493 645.848 303.189C653.673 307.942 659.578 312.477 662.092 314.491C662.962 315.18 663.425 315.578 663.425 315.578L667.917 317.215Z" fill="#2F2E41"/>
<path d="M584.124 317.215H569.141L573.089 312.629L575.321 310.035L576.277 310.81L584.124 317.215Z" fill="#FFB6B6"/>
<path d="M769.256 317.216H640.233L645.848 303.189L653.564 283.888L657.441 274.194L654.238 260.566C654.238 260.566 652.659 259.45 650.253 257.443C641.682 250.343 622.606 232.056 626.989 213.276C631.974 191.903 638.234 150.25 639.559 141.273C639.726 140.15 639.813 139.541 639.813 139.541L658.433 134.977L659.049 134.825L661.049 134.332H710.925L747.608 159.176L747.6 159.437L745.361 227.738L744.405 256.958C744.405 256.958 743.253 261.174 743.528 267.724C743.71 272.216 744.557 277.802 746.905 283.888C749.39 290.358 753.57 297.386 760.432 304.247C765.612 309.428 768.126 313.789 769.256 317.216Z" fill="#31294A"/>
<path d="M758.771 229.359C757.547 239.401 756.373 246.537 756.373 246.537L743.535 267.723L733.739 283.887L716.836 311.774L714.358 315.867L712.59 317.215H659.562L662.098 314.491L687.355 287.386L690.623 283.887L695.919 278.199L712.474 223.751L731.986 159.58C731.986 159.58 739.89 156.827 747.607 159.435C751.664 160.805 755.678 163.659 758.438 169.195C763.72 179.758 761.148 209.971 758.771 229.359Z" fill="#31294A"/>
<path d="M665.489 227.607L650.26 257.443L636.762 283.888L630.93 295.307L628.633 299.813L608.948 317.216H564.375L571.722 308.087L574.453 304.682L585.169 291.365L591.182 283.888L607.506 263.587L611.86 171.125C612.582 155.789 624.266 143.392 639.474 141.288C639.507 141.284 639.537 141.279 639.566 141.273C644.507 140.28 652.361 139.991 658.44 145.866C658.65 146.062 658.853 146.272 659.056 146.489C660.077 147.569 661.041 148.837 661.925 150.322C662.012 150.467 662.099 150.619 662.178 150.771C662.432 151.235 662.678 151.742 662.903 152.286C670.663 170.355 665.489 227.607 665.489 227.607Z" fill="#31294A"/>
<path d="M678.774 123.372C698.229 123.372 714 107.6 714 88.1448C714 68.6895 698.229 52.918 678.774 52.918C659.318 52.918 643.547 68.6895 643.547 88.1448C643.547 107.6 659.318 123.372 678.774 123.372Z" fill="#A0616A"/>
<path d="M693.379 101.993C693.379 101.993 689.728 91.9318 687.657 86.711C685.586 81.4902 686.937 74.7152 686.937 74.7152C686.937 74.7152 659.303 68.6157 648.482 74.6613C637.661 80.7068 636.933 50.2988 647.916 42.0229C647.916 42.0229 650.857 47.1343 649.716 48.6038L648.574 50.0733C648.574 50.0733 656.885 32.4971 670.919 31.6172C670.919 31.6172 677.571 36.9247 675.064 38.6766C672.557 40.4285 693.547 28.7731 697.199 38.8342C697.199 38.8342 710.582 41.2186 707.974 45.7898L708.194 48.9447C708.194 48.9447 720.324 47.6853 719.459 56.2808C719.459 56.2808 715.379 55.4676 712.769 57.2101C710.159 58.9526 718.977 67.2151 718.977 67.2151C718.977 67.2151 724.277 101.645 705.897 111.558C705.897 111.558 708.879 95.8897 701.863 98.4512C694.847 101.013 693.379 101.993 693.379 101.993Z" fill="#2F2E41"/>
<path d="M845.641 325.715H21.1641C9.49414 325.715 0 316.221 0 304.551C0 292.881 9.49414 283.387 21.1641 283.387H845.641C857.311 283.387 866.805 292.881 866.805 304.551C866.805 316.221 857.311 325.715 845.641 325.715Z" fill="#E6E6E6"/>
<path d="M817.525 218.878L815.922 293.68C815.766 300.922 809.852 306.711 802.609 306.711H665.007C657.935 306.711 652.097 301.183 651.711 294.122L647.622 219.32C647.205 211.691 653.278 205.277 660.917 205.277H804.212C811.678 205.277 817.684 211.414 817.525 218.878Z" fill="#3F3D56"/>
<path d="M296.383 96.2694C314.565 96.2694 329.305 81.5298 329.305 63.3476C329.305 45.1654 314.565 30.4258 296.383 30.4258C278.201 30.4258 263.461 45.1654 263.461 63.3476C263.461 81.5298 278.201 96.2694 296.383 96.2694Z" fill="#FFB6B6"/>
<path d="M241.322 149.488L244.945 188.612L269.578 287.872L248.297 295.331L212.341 187.163L207.375 143.691L241.322 149.488Z" fill="#FFB6B6"/>
<path d="M231.525 218.878L229.922 293.68C229.766 300.922 223.852 306.711 216.609 306.711H79.0067C71.9352 306.711 66.0971 301.183 65.7111 294.122L61.6218 219.32C61.2048 211.691 67.2779 205.277 74.9174 205.277H218.212C225.678 205.277 231.684 211.414 231.525 218.878Z" fill="#3F3D56"/>
<path d="M273.5 307.215C287.859 307.215 299.5 302.066 299.5 295.715C299.5 289.364 287.859 284.215 273.5 284.215C259.141 284.215 247.5 289.364 247.5 295.715C247.5 302.066 259.141 307.215 273.5 307.215Z" fill="#FFB6B6"/>
<path d="M190.242 155.471L205.095 76.3128C205.095 76.3128 246.393 70.5167 247.842 84.2826C249.291 98.0486 246.806 165.325 246.806 165.325L190.242 155.471Z" fill="#31294A"/>
<path d="M283.093 68.5244C283.093 68.5244 303.459 61.256 312.049 57.3453C320.64 53.4346 337.706 80.7117 338.086 66.3057C338.466 51.8998 332.569 45.8586 332.569 45.8586C332.569 45.8586 331.096 14.3435 299.345 18.2836C299.345 18.2836 306.329 2.51628 283.404 0.0781515C260.48 -2.35998 224.815 52.9991 228.009 61.2722C231.203 69.5454 235.032 76.3851 225.97 85.2309C216.908 94.0767 199.94 144 212.85 157.434C225.761 170.868 226.608 176.698 217.762 185.055C208.917 193.413 188.008 211.586 210.615 214.74C233.222 217.895 208.547 215.539 225.401 200.714C242.254 185.889 266.848 186.495 257.665 162.71C248.482 138.924 264.436 104.84 262.44 99.6697C260.444 94.499 266.913 61.6647 266.913 61.6647C266.913 61.6647 281.968 59.4528 283.093 68.5244Z" fill="#2F2E41"/>
<path d="M553.903 221.981C537.647 280.458 471.607 316.046 406.396 301.463C341.212 286.884 301.53 227.654 317.794 169.18C334.042 110.697 400.083 75.1053 465.274 89.6845C530.481 104.264 570.159 163.501 553.903 221.981Z" fill="#D80027"/>
<path d="M489.511 180.024C491.934 165.499 479.603 157.691 462.742 152.482L468.211 132.807L454.857 129.822L449.532 148.979C446.022 148.194 442.416 147.454 438.833 146.721L444.196 127.438L430.85 124.453L425.377 144.122C422.471 143.528 419.618 142.941 416.849 142.324L416.864 142.262L398.448 138.138L394.895 150.93C394.895 150.93 404.803 152.966 404.594 153.093C410.003 154.304 410.98 157.513 410.817 160.058L404.587 182.473C404.959 182.558 405.442 182.681 405.975 182.872C405.53 182.773 405.054 182.664 404.564 182.558L395.831 213.957C395.169 215.431 393.492 217.641 389.711 216.802C389.844 216.976 380.005 214.629 380.005 214.629L373.375 228.339L390.753 232.224C393.986 232.95 397.155 233.711 400.273 234.427L394.747 254.328L408.086 257.313L413.559 237.624C417.203 238.511 420.74 239.329 424.201 240.1L418.747 259.697L432.101 262.682L437.627 242.819C460.399 246.684 477.522 245.125 484.73 226.653C490.538 211.781 484.441 203.202 472.46 197.608C481.185 195.803 487.758 190.656 489.511 180.024ZM458.999 218.395C454.873 233.268 426.951 225.228 417.899 223.212L425.232 196.847C434.284 198.873 463.312 202.885 458.999 218.395ZM463.13 179.809C459.364 193.337 436.125 186.464 428.587 184.779L435.235 160.867C442.774 162.552 467.051 165.697 463.13 179.809Z" fill="white"/>
</g>
<defs>
<clipPath id="clip0_2037_9291">
<rect width="866.805" height="325.716" fill="white"/>
</clipPath>
</defs>
</svg>
